<?xml version="1.0" encoding="UTF-8"?><svg xmlns="http://www.w3.org/2000/svg" viewBox="-10 -10 269.65 189.24"><defs><filter id="f1"><feGaussianBlur in="SourceAlpha" result="r1" stdDeviation="2"/><feOffset dx="-2" dy="4" in="r1" result="r2"/><feColorMatrix in="r2" result="r3" type="matrix" values="0 0 0 0 0 0 0 0 0 0 0 0 0 0 0 0 0 0 0.75 0" /><feMerge><feMergeNode in="r3"/></feMerge></filter></defs><path fill="#90ff9d" d="m242.04,129.99c-1.99.24-3.84-.55-5.01-2.1-.71,1.75-2.32,3-4.45,3.26l-3.06.38c-1.87.23-3.54-.38-4.67-1.57-1.6,1.6-3.59,2.58-5.81,2.86l-10.77,1.32c-3.16.39-5.73-1.63-6.12-4.8l-3.65-29.74c-.39-3.17,1.62-5.75,4.78-6.14l10.77-1.32c2.21-.27,4.38.2,6.32,1.38.81-1.44,2.28-2.44,4.16-2.67l10.65-1.31c2.63-.32,5.19.4,7.4,2.1,2.23,1.71,3.58,4.03,3.91,6.7l.89,7.25c.27,2.16-.16,4.22-1.28,6.13-.31.54-.66,1.04-1.05,1.51l4.45,8.29c.89,1.69.89,3.57.03,5.18-.88,1.63-2.41,2.67-4.22,2.89l-3.27.4Z"/><path fill="#0a080b" d="m218.55,128.84l-10.77,1.32c-.99.12-1.54-.32-1.66-1.32l-3.65-29.74c-.12-1,.31-1.56,1.3-1.68l10.77-1.32c1.58-.19,3.06.24,4.44,1.29,1.38,1.06,2.16,2.39,2.36,3.98l.67,5.42c.17,1.38-.12,2.64-.87,3.81l-.87,1.38,1.22,1.18c.98.95,1.55,2.1,1.71,3.45l.67,5.46c.2,1.61-.24,3.09-1.32,4.45-1.08,1.35-2.41,2.13-4.01,2.32Zm-8.59-18.64l6.21-.76-.9-7.29-6.21.76.9,7.29Zm1.64,13.36l6.21-.76-.9-7.29-6.21.76.9,7.29Zm33.23,2.05l-3.27.4c-.67.08-1.16-.18-1.49-.79l-6.31-11.79-1.79.22,1.45,11.84c.12,1-.32,1.56-1.32,1.68l-3.06.38c-1,.12-1.56-.32-1.68-1.32l-3.65-29.74c-.12-1,.32-1.56,1.32-1.68l10.65-1.31c1.6-.2,3.09.24,4.48,1.3,1.39,1.06,2.18,2.4,2.38,4.01l.89,7.25c.16,1.28-.1,2.49-.76,3.63-.66,1.14-1.55,2-2.65,2.57l5.98,11.13c.26.49.27.96.03,1.41-.25.47-.64.73-1.17.8Zm-7.49-18.77l-.9-7.29-6.13.75.9,7.29,6.13-.75Z"/><use href="#a" filter="url(#f1)" /><g id="a" fill="#e50058" stroke="#000" stroke-linecap="round" stroke-linejoin="round"><path d="m10.56,17.74l20.79,30.8c2.68-3.46,4.3-7.85,4.85-13.15.56-5.31.11-11.58-1.35-18.84l12.32-1.02c1.77,15.6,1.43,26.69-1,33.27-2.43,6.58-5.67,12.62-9.73,18.12-4.06,5.5-9.11,10.73-15.15,15.72l-6.78-11.79,10.2-10.65L1.98,27.02l8.57-9.29Zm52.66-6.73l.71,5.78,2.73-6.2,29.11-3.57c3.71.56,6.02,5.41,6.93,14.55l4.88,39.74c-.31,3.32-2.85,5.35-7.62,6.08l-33.65,4.13c-4.97.82-8.14-1-9.49-5.46l-6.23-50.76,12.64-4.28Zm1.6,13.01l4.17,33.96,24.61-3.02-4.17-33.96-24.61,3.02ZM119.06,3.56c.22,15.67,1.27,26.06,3.13,31.18,1.87,5.11,4.33,9.03,7.38,11.76,3.05,2.73,9.2,2.72,18.44-.03l-5.59-45.16,12.88-.82,7.09,57.78-12.63,2.85-.89-7.28-1.31,8.26-2.7.96c-8.24,1.16-14.63.77-19.15-1.18-4.52-1.95-8.61-6.54-12.28-13.76-3.66-7.22-6.12-17.99-7.37-32.31l-.25-8.25,13.25-4Z"/><path d="m1.96,97.17l20.73-2.55,5.66,46.09c.34,4.02.28,7.54-.2,10.57-.48,3.03-2.54,6.33-6.19,9.89-3.65,3.57-8.7,6.09-15.14,7.57l-2.68-13.1c4.07-.86,7.1-2.94,9.08-6.24,1.98-3.3,1.43-15.81-1.65-37.51l5.62-3.82-16.67,2.05,1.46-12.94Zm39.8-5.33l7.35,60.25-13.27,1.63-7.19-58.21,13.11-3.67Zm5.85-.41l40.04-4.92v13.43s-14.25,1.75-14.25,1.75l3.51,28.62c.04,4.5,1.87,6.95,5.47,7.34l-1.69,12.83c-4.01.61-7.58-.28-10.69-2.67-3.11-2.39-4.99-5.83-5.63-10.32l-3.87-31.53,5.35-3.43-17.96,2.16-.29-13.26Zm45.4-5.66l32.72-4.06c3.67.45,6.21,2.15,7.63,5.11,1.42,2.96,2.28,5.6,2.56,7.92l-11.27,3.71c-.34-2.76-3.09-3.62-8.24-2.57l-9.09,1.12,31.08,23.76c2.38,2.39,3.19,6.82,2.43,13.27-1.04,4.19-4.54,6.91-10.5,8.18l-22.28,2.69c-2.69-.53-4.94-1.92-6.73-4.16-1.8-2.24-3.33-5.11-4.59-8.59l11.58-5.58c.73,3.31,2.29,4.76,4.65,4.35l11.78-1.4c1.74-.63,1.29-1.89-1.36-3.77l-28.9-22.06,5.73-5.81-8.11,1,.9-13.09Zm60.78-8.09c.22,15.67,1.27,26.06,3.13,31.18,1.87,5.11,4.33,9.03,7.38,11.76,3.05,2.73,9.2,2.72,18.44-.02l-5.59-45.16,12.88-.82,7.09,57.77-12.63,2.85-.89-7.28-1.31,8.26-2.7.96c-8.24,1.16-14.63.77-19.15-1.18-4.52-1.95-8.61-6.54-12.28-13.76-3.66-7.22-6.12-17.99-7.37-32.31l-.25-8.25,13.25-4Z"/></g></svg>
